<?xml version="1.0" standalone="no"?>
<!DOCTYPE svg PUBLIC "-//W3C//DTD SVG 20010904//EN"
 "http://www.w3.org/TR/2001/REC-SVG-20010904/DTD/svg10.dtd">
<svg version="1.0" xmlns="http://www.w3.org/2000/svg"
 width="512.000000pt" height="512.000000pt" viewBox="0 0 512.000000 512.000000"
 preserveAspectRatio="xMidYMid meet">

<g transform="translate(0.000000,512.000000) scale(0.100000,-0.100000)"
fill="#000000" stroke="none">
<path d="M3604 4507 c0 -180 -4 -228 -23 -316 -52 -244 -148 -467 -276 -647
-14 -19 -9 -25 125 -133 78 -61 147 -114 154 -117 7 -3 188 215 461 557 348
436 446 565 438 577 -14 24 -170 114 -274 160 -162 71 -332 111 -529 126 l-75
5 -1 -212z"/>
<path d="M3370 4699 c-267 -44 -526 -160 -730 -327 -78 -64 -180 -165 -179
-177 0 -8 598 -492 713 -578 l24 -17 47 72 c175 273 262 610 240 932 l-7 106
-26 -1 c-15 -1 -52 -5 -82 -10z"/>
<path d="M1290 4368 c-91 -6 -247 -31 -257 -42 -2 -2 52 -33 121 -70 145 -77
121 -74 451 -51 l210 14 22 28 c13 15 23 33 23 39 0 11 -103 44 -205 64 -89
18 -246 26 -365 18z"/>
<path d="M4140 3774 c-370 -464 -449 -569 -438 -579 7 -7 68 -56 135 -109
l122 -96 89 88 c258 255 585 417 933 464 73 9 89 15 89 29 0 36 -61 202 -110
300 -28 56 -78 142 -112 191 -57 84 -231 278 -248 278 -5 0 -212 -255 -460
-566z"/>
<path d="M747 4212 c-143 -76 -250 -156 -356 -268 -87 -90 -189 -231 -236
-325 l-25 -48 133 -69 c72 -38 150 -79 172 -90 l40 -20 279 132 279 132 83
219 c46 120 83 220 81 221 -7 5 -335 174 -338 174 -2 0 -52 -26 -112 -58z"/>
<path d="M1957 4203 l-26 -36 122 -129 c304 -321 253 -279 425 -352 83 -35
152 -62 152 -60 0 2 -19 36 -42 75 -88 147 -243 315 -383 414 -55 40 -202 125
-216 125 -3 0 -18 -17 -32 -37z"/>
<path d="M1556 4081 l-238 -16 -79 -210 c-43 -115 -79 -215 -79 -222 0 -18
382 -423 400 -423 45 0 494 60 500 67 4 4 41 98 82 209 l74 201 -192 204
c-106 112 -201 205 -211 205 -10 1 -125 -6 -257 -15z"/>
<path d="M2630 3859 c102 -143 191 -338 240 -526 6 -24 15 -43 20 -43 5 0 59
48 120 108 l111 107 -223 176 c-123 97 -247 196 -276 219 l-53 42 61 -83z"/>
<path d="M2248 3420 l-75 -199 134 -208 c74 -114 138 -214 142 -221 6 -10 47
3 176 55 l168 68 -6 115 c-10 171 -58 403 -90 427 -6 5 -79 38 -162 73 -82 34
-164 69 -181 76 l-32 13 -74 -199z"/>
<path d="M807 3415 c-142 -68 -260 -125 -263 -127 -6 -6 57 -522 64 -529 12
-10 566 -99 574 -91 13 14 258 452 258 463 0 8 -370 412 -374 408 -1 0 -117
-56 -259 -124z"/>
<path d="M61 3385 c-11 -36 -28 -104 -38 -153 -44 -218 -6 -646 60 -672 12 -4
75 -33 140 -64 l118 -56 70 147 71 146 -32 276 c-18 152 -33 276 -34 277 -17
12 -320 164 -326 164 -5 0 -18 -29 -29 -65z"/>
<path d="M3130 3340 c-47 -47 -116 -110 -155 -139 l-70 -52 3 -132 c2 -73 -2
-166 -7 -207 -6 -41 -13 -95 -16 -120 l-7 -45 77 -29 c75 -27 78 -28 95 -10
38 41 460 574 460 581 -1 7 -90 79 -249 203 l-46 36 -85 -86z"/>
<path d="M4995 3423 c-72 -10 -208 -45 -291 -73 -206 -73 -386 -183 -543 -335
l-105 -102 375 -299 c206 -165 379 -303 386 -307 7 -4 29 20 58 65 104 162
185 367 221 563 20 105 27 410 11 468 -6 24 -12 27 -45 26 -20 -1 -50 -4 -67
-6z"/>
<path d="M1808 3117 l-246 -31 -140 -246 c-76 -135 -137 -250 -135 -257 3 -8
27 -2 75 18 145 60 332 112 498 140 41 6 162 15 268 18 l192 6 -114 178 c-121
188 -135 208 -145 206 -3 -1 -117 -16 -253 -32z"/>
<path d="M3389 2833 c-122 -153 -226 -283 -231 -289 -6 -8 14 -25 64 -52 101
-55 210 -128 293 -195 39 -31 72 -57 75 -57 3 0 16 42 29 93 41 162 150 402
235 516 14 19 26 38 26 42 0 4 -53 49 -117 100 -65 51 -126 99 -135 107 -15
12 -39 -14 -239 -265z"/>
<path d="M3923 2728 c-96 -153 -166 -328 -202 -505 l-20 -95 65 -81 c36 -45
88 -127 115 -182 28 -55 54 -100 57 -100 4 0 34 11 66 23 73 28 183 52 239 52
50 0 149 53 272 145 77 58 241 212 234 219 -35 32 -762 606 -767 606 -4 0 -31
-37 -59 -82z"/>
<path d="M2705 2749 c-27 -11 -54 -24 -58 -28 -4 -4 18 -13 48 -20 31 -7 58
-11 60 -9 8 8 16 78 9 77 -5 0 -31 -9 -59 -20z"/>
<path d="M506 2503 c-36 -73 -66 -141 -65 -151 0 -9 26 -93 58 -186 l57 -169
36 49 c52 71 220 231 321 305 47 35 127 87 176 114 50 28 89 55 87 60 -2 9
-231 52 -517 98 l-86 14 -67 -134z"/>
<path d="M1950 2629 c-148 -18 -375 -73 -473 -114 l-37 -15 0 -553 c0 -450 3
-565 15 -622 19 -90 19 -252 0 -335 -17 -71 -51 -163 -72 -195 -7 -11 -13 -23
-13 -26 0 -13 206 -88 323 -118 197 -51 316 -64 542 -58 203 5 293 17 462 60
l88 23 3 936 2 936 -82 22 c-173 47 -276 60 -483 65 -110 2 -234 0 -275 -6z
m-120 -900 l0 -60 53 3 52 3 3 58 3 57 59 0 60 0 0 -61 0 -60 53 3 52 3 3 58
3 57 59 0 60 0 0 -60 0 -60 40 0 40 0 0 60 0 60 60 0 59 0 3 -57 3 -58 53 -3
52 -3 0 -60 0 -59 -55 0 -55 0 0 -55 0 -55 -60 0 -60 0 0 55 0 55 -40 0 -40 0
0 -55 0 -55 -60 0 -60 0 0 55 0 55 -55 0 -55 0 0 -55 0 -55 -60 0 -60 0 0 55
0 55 -55 0 -55 0 0 -55 0 -55 -65 0 -65 0 0 55 0 55 -45 0 -45 0 0 60 0 60 45
0 45 0 0 60 0 60 65 0 65 0 0 -61z"/>
<path d="M2910 1611 l0 -890 73 30 c39 16 117 54 172 83 l100 54 3 720 2 721
-72 42 c-71 42 -213 110 -255 123 l-23 7 0 -890z"/>
<path d="M1214 2397 c-55 -29 -133 -76 -172 -103 l-72 -49 0 -177 0 -178 68
-34 c87 -44 180 -114 237 -179 l45 -52 0 413 c0 226 -1 412 -2 412 -2 0 -48
-24 -104 -53z"/>
<path d="M130 2395 c0 -14 58 -118 108 -193 51 -77 180 -227 188 -219 2 2 -21
78 -52 169 l-55 166 -90 41 c-93 42 -99 45 -99 36z"/>
<path d="M3380 1610 c0 -711 -8 -651 79 -573 41 36 43 41 52 118 24 191 122
379 260 495 56 47 56 44 8 149 -37 80 -104 174 -186 262 -61 65 -193 179 -207
179 -3 0 -6 -284 -6 -630z"/>
<path d="M758 2050 c-49 -51 -88 -96 -88 -100 0 -6 171 -30 178 -25 1 1 1 51
0 110 l-3 108 -87 -93z"/>
<path d="M618 1809 c-82 -9 -153 -31 -231 -72 -63 -33 -62 -27 -6 -94 l27 -31
35 24 c20 13 38 24 41 24 3 0 19 -21 37 -47 36 -51 37 -47 -29 -93 l-21 -15
26 -60 c14 -33 27 -62 28 -63 2 -2 24 0 49 6 l45 9 11 -48 c16 -64 10 -76 -39
-84 l-41 -7 0 -73 0 -73 41 -7 c22 -4 43 -13 46 -21 3 -8 0 -36 -7 -64 -9 -39
-16 -50 -29 -46 -67 20 -64 23 -92 -65 l-26 -81 34 -21 c18 -12 33 -26 33 -30
0 -5 -14 -28 -31 -53 l-30 -45 -33 20 -33 21 -47 -55 -46 -54 22 -15 c49 -32
140 -67 210 -82 150 -33 357 4 477 85 12 8 7 19 -24 60 -38 49 -39 50 -63 35
-13 -9 -25 -14 -26 -12 -2 2 -17 24 -34 50 l-32 46 25 19 24 18 -28 80 c-26
73 -31 80 -55 80 -23 -1 -28 5 -37 40 -6 22 -12 48 -15 58 -4 13 2 19 25 23
30 6 31 9 33 60 4 115 6 108 -27 114 -33 6 -35 17 -15 92 10 35 11 36 43 27
39 -11 37 -11 37 2 0 6 12 38 27 71 22 50 24 61 12 68 -50 29 -51 33 -24 70
15 19 30 41 35 49 7 13 12 12 34 -2 34 -23 36 -22 74 23 l32 39 -72 35 c-119
58 -239 79 -370 65z"/>
<path d="M4148 1705 c-36 -9 -81 -21 -98 -29 l-33 -13 -2 -134 c-1 -89 -11
-186 -28 -287 -34 -194 -28 -229 50 -304 64 -62 122 -82 238 -83 133 0 191 20
261 90 78 78 78 84 24 395 -16 91 -21 153 -18 227 l3 101 -75 23 c-95 28 -231
34 -322 14z"/>
<path d="M174 1558 c-95 -129 -134 -245 -134 -398 0 -165 51 -309 147 -419
l47 -54 43 49 44 49 -26 20 c-14 12 -25 24 -25 29 0 4 14 27 31 51 30 41 33
43 54 29 20 -13 23 -12 33 10 6 13 14 40 17 60 6 32 5 36 -19 42 -29 7 -31 16
-15 80 11 41 14 45 35 40 22 -6 24 -3 24 34 0 36 -3 40 -24 40 -27 0 -32 8
-41 74 -6 38 -5 46 8 46 25 0 29 16 13 55 -16 37 -25 42 -43 24 -8 -8 -20 2
-43 36 -30 43 -34 75 -10 75 5 0 10 4 10 10 0 13 -60 80 -71 80 -5 0 -30 -28
-55 -62z"/>
<path d="M1124 1589 l-29 -31 29 -23 29 -23 -32 -51 -33 -51 -30 21 c-16 12
-30 20 -32 18 -4 -6 -36 -89 -36 -94 0 -2 16 -7 35 -11 40 -7 39 -3 21 -69
-13 -49 -13 -50 -49 -48 l-37 2 0 -46 0 -46 39 7 c38 6 39 6 45 -32 3 -20 9
-46 12 -58 5 -18 -1 -23 -40 -33 l-45 -11 21 -60 c11 -33 22 -60 25 -60 3 0
20 9 38 20 l33 20 32 -50 c32 -49 32 -52 14 -65 -60 -43 -58 -36 -17 -84 l37
-44 43 48 c160 183 199 477 93 701 -30 62 -115 184 -129 184 -4 0 -20 -14 -37
-31z"/>
<path d="M3813 1516 c-80 -83 -141 -194 -169 -306 -22 -87 -15 -259 15 -350
51 -159 175 -304 322 -378 108 -54 192 -75 304 -75 143 1 249 33 371 115 335
224 382 706 98 996 -39 39 -77 72 -84 72 -19 0 -7 -140 26 -315 15 -77 27
-167 27 -200 2 -151 -134 -296 -311 -334 -72 -15 -206 -14 -267 3 -121 32
-218 104 -264 197 -44 89 -46 123 -17 310 30 191 43 339 30 339 -5 0 -41 -33
-81 -74z"/>
</g>
</svg>
